<svg width="53" height="53" viewBox="0 0 53 53" fill="none" xmlns="http://www.w3.org/2000/svg">
<path d="M48.1539 22.175H46.3751V22.0833H26.5001V30.9167H38.9805C37.1597 36.0588 32.2671 39.75 26.5001 39.75C19.1828 39.75 13.2501 33.8173 13.2501 26.5C13.2501 19.1827 19.1828 13.25 26.5001 13.25C29.8777 13.25 32.9506 14.5242 35.2904 16.6056L41.5366 10.3593C37.5925 6.68351 32.3168 4.41666 26.5001 4.41666C14.3046 4.41666 4.41675 14.3045 4.41675 26.5C4.41675 38.6955 14.3046 48.5833 26.5001 48.5833C38.6956 48.5833 48.5834 38.6955 48.5834 26.5C48.5834 25.0193 48.431 23.5739 48.1539 22.175Z" fill="#FFC107"/>
<path d="M6.96289 16.2213L14.2184 21.5423C16.1816 16.6817 20.9361 13.25 26.5 13.25C29.8777 13.25 32.9506 14.5242 35.2903 16.6056L41.5366 10.3593C37.5925 6.68351 32.3168 4.41666 26.5 4.41666C18.0178 4.41666 10.6618 9.20543 6.96289 16.2213Z" fill="#FF3D00"/>
<path d="M26.4998 48.5833C32.2039 48.5833 37.3869 46.4004 41.3055 42.8505L34.4708 37.0669C32.1791 38.8097 29.3788 39.7523 26.4998 39.75C20.7559 39.75 15.8788 36.0875 14.0415 30.9763L6.84009 36.5247C10.4949 43.6764 17.9171 48.5833 26.4998 48.5833Z" fill="#4CAF50"/>
<path d="M48.1538 22.175H46.375V22.0833H26.5V30.9167H38.9804C38.1094 33.364 36.5406 35.5025 34.4677 37.068L34.471 37.0658L41.3058 42.8494C40.8221 43.2889 48.5833 37.5417 48.5833 26.5C48.5833 25.0193 48.431 23.574 48.1538 22.175Z" fill="#1976D2"/>
</svg>
