<svg width="1390" height="251" viewBox="0 0 1390 251" fill="none" xmlns="http://www.w3.org/2000/svg">
<path d="M1388.63 250.578V226.598C1379.46 224.968 1358.7 221.568 1332.3 218.77C1322.06 178.779 1305.87 112.719 1304.89 91.6784C1303.48 60.791 1312.39 1 1312.39 1L1302.06 13.4328C1302.06 13.4328 1301.05 23.6696 1300.29 38.2986H1287.47C1286.72 23.6342 1285.71 13.4328 1285.71 13.4328L1275.37 1C1275.37 1 1284.29 60.791 1282.87 91.6784C1281.93 112.01 1266.8 174.281 1256.53 214.555C1239.8 214.59 1222.98 215.44 1206.91 217.353V210.304L1172.54 206.479V125.789L1130.83 122.105L1110.73 125.789V215.051H1092.39V199.253H1066.15V107.76H941.455V186.714H910.36V76.5535H902.326V97.8771H876.209V76.5535H868.175V233.151L855.321 234.072L846.027 206.372V80.804H783.49V250.578H767.801V217.636H762.571V181.825H753.687V174.281H722.623V142.897H707.501V71.9842H679.462V131.563H644.964V215.157H636.931L616.201 230.955V61.6411L599.724 59.6221L567.337 61.6411V188.272H555.68V226.562H531.264V182.215H516.614V55.5841H467.089V239.172H454.77V172.51H445.697V165.248H412.082V172.51H400.866V227.058H375.126L375.883 250.472H369.141L358.776 227.413H330.988L338.581 249.374L336.596 250.436H334.233L326.294 227.377H296.491L304.083 249.338L302.099 250.401H299.736L291.797 227.342H253.14L259.284 249.515L257.236 250.401H254.936L248.541 227.342H209.632L213.507 249.834L211.397 250.401H209.191L205.222 227.342H165.935V250.401H161.619V227.342H116.063L112.094 250.401H109.888L107.778 249.834L111.653 227.342H72.7444L66.6954 250.401H64.4271L62.3793 249.551L68.2077 227.342H38.2467L32.1978 250.401H29.9295L27.8817 249.551L33.71 227.342H6.89953L0 250.401" stroke="white" stroke-opacity="0.05" stroke-width="2" stroke-miterlimit="10" stroke-linecap="round" stroke-linejoin="round"/>
</svg>
