<svg width="114" height="25" viewBox="0 0 114 25" fill="none" xmlns="http://www.w3.org/2000/svg">
<path d="M2.9763 19H5.99144V11.9687H13.2058V9.25879H5.99144V3.94873H14.5852V1.23877H2.9763V19ZM24.8215 6.80517V8.27002H24.7727C23.845 7.17138 22.5876 6.62207 21.0007 6.62207C20.1706 6.62207 19.3894 6.78076 18.6692 7.09814C17.9368 7.41553 17.3142 7.85498 16.8015 8.4043C16.2766 8.96582 15.8616 9.63721 15.5686 10.4185C15.2634 11.2119 15.1169 12.0542 15.1169 12.9575C15.1169 13.7021 15.2024 14.3979 15.3977 15.0571C15.593 15.7163 15.8616 16.29 16.2156 16.7905C16.5696 17.291 16.9846 17.7183 17.4729 18.0845C17.9612 18.4507 18.4983 18.7314 19.1086 18.9146C19.719 19.1099 20.3537 19.1953 21.0251 19.1953C22.6853 19.1953 23.9792 18.585 24.907 17.3643H24.9436V19H27.6169V6.80517H24.8215ZM21.4646 16.6562C20.427 16.6562 19.5847 16.3145 18.9377 15.6309C18.2786 14.9473 17.9612 14.0562 17.9612 12.9697C17.9612 12.4082 18.0466 11.8833 18.2297 11.395C18.4128 10.9067 18.6692 10.5039 18.9866 10.1865C19.3039 9.86914 19.6702 9.61279 20.0974 9.42969C20.5246 9.25879 20.9885 9.16113 21.4768 9.16113C22.4656 9.16113 23.2834 9.52734 23.9426 10.2598C24.6018 10.9922 24.9314 11.8955 24.9314 12.9697C24.9314 14.0562 24.5896 14.9473 23.9182 15.6309C23.2468 16.3145 22.4289 16.6562 21.4646 16.6562ZM37.0232 6.62207C36.2786 6.62207 35.5828 6.80517 34.9236 7.14697C34.2644 7.48877 33.7029 7.98926 33.2268 8.63623H33.1902V6.80517H30.3948V19H33.1902V13.2139C33.1902 12.5547 33.3122 11.9565 33.5686 11.4316C33.8249 10.9067 34.2034 10.4917 34.7161 10.1743C35.2287 9.86914 35.8269 9.71045 36.5227 9.71045C36.7668 9.71045 37.0476 9.72265 37.365 9.74707V6.63428C37.2917 6.63428 37.1819 6.62207 37.0232 6.62207ZM53.6438 6.62207C52.7405 6.62207 51.9104 6.80517 51.1658 7.14697C50.4089 7.48877 49.7864 7.98926 49.2737 8.64844H49.2248C48.4924 7.30566 47.2839 6.62207 45.5871 6.62207C44.8669 6.62207 44.1711 6.79297 43.512 7.11035C42.8528 7.42773 42.2668 7.8916 41.7786 8.48974H41.7419V6.80517H38.9465V19H41.7419V12.9209C41.7419 11.7612 42.0105 10.8457 42.5598 10.1743C43.1091 9.50293 43.8171 9.16113 44.6716 9.16113C46.2829 9.16113 47.1008 10.333 47.1008 12.6523V19.0122H49.8962V12.9209C49.8962 11.7612 50.1648 10.8457 50.7019 10.1743C51.239 9.50293 51.9226 9.16113 52.7405 9.16113C54.3274 9.16113 55.133 10.333 55.133 12.6523V19.0122H57.9285V11.9443C57.9285 10.1621 57.55 8.83154 56.8176 7.95264C56.073 7.07373 55.011 6.62207 53.6438 6.62207ZM60.9871 19H64.0022V11.8833H72.0344V19H75.0496V1.23877H72.0344V9.17334H64.0022V1.23877H60.9871V19ZM79.5486 4.98633C79.8782 4.98633 80.1833 4.91308 80.4763 4.74219C80.7693 4.57129 81.0012 4.35156 81.1721 4.05859C81.343 3.77783 81.4285 3.47265 81.4285 3.13086C81.4285 2.63037 81.2331 2.19092 80.8669 1.8247C80.5007 1.45849 80.0613 1.27539 79.5486 1.27539C79.0115 1.27539 78.572 1.45849 78.2058 1.8247C77.8396 2.19092 77.6565 2.61816 77.6565 3.13086C77.6565 3.64355 77.8396 4.08301 78.2058 4.44922C78.572 4.81543 79.0115 4.98633 79.5486 4.98633ZM78.1326 19H80.928V6.80517H78.1326V19ZM92.031 6.80517L88.906 15.4966H88.8572L85.6711 6.80517H82.6804L87.5388 19H90.2122L95.0461 6.80517H92.031ZM107.761 12.7622C107.761 11.5903 107.516 10.5283 107.04 9.60058C106.552 8.67285 105.868 7.95264 104.965 7.41553C104.062 6.89062 103.012 6.62207 101.84 6.62207C100.998 6.62207 100.217 6.78076 99.4841 7.08594C98.7517 7.39111 98.1169 7.81836 97.592 8.35547C97.0549 8.90478 96.6399 9.56396 96.3469 10.3452C96.0417 11.1265 95.8953 11.981 95.8953 12.8965C95.8953 14.1416 96.1638 15.2524 96.7131 16.2168C97.2502 17.1812 97.9949 17.9136 98.947 18.4263C99.887 18.939 100.949 19.1953 102.133 19.1953C103.268 19.1953 104.269 18.9878 105.136 18.5728C106.003 18.1577 106.711 17.5962 107.272 16.8882L105.319 15.2158C104.55 16.1802 103.537 16.6562 102.28 16.6562C101.376 16.6562 100.619 16.4121 99.9968 15.9116C99.3743 15.4233 98.9714 14.7397 98.8005 13.873H107.687C107.736 13.5801 107.761 13.2139 107.761 12.7622ZM101.987 9.16113C102.499 9.16113 102.963 9.27099 103.378 9.47851C103.793 9.68603 104.123 9.9668 104.379 10.333C104.635 10.6992 104.831 11.1265 104.953 11.6147H98.8494C99.0447 10.8335 99.4231 10.2354 99.9846 9.8081C100.546 9.38086 101.205 9.16113 101.987 9.16113Z" fill="white"/>
<path d="M106.213 2.28262L96.2255 3.17968L92.129 13.6153L98.0196 23.1539L108.007 22.2568L112.103 11.8212L106.213 2.28262Z" stroke="#FCCB04" stroke-width="1.5"/>
</svg>
