<svg width="0" height="0" class="hidden">
  <symbol fill="none" xmlns="http://www.w3.org/2000/svg" viewBox="0 0 24 24" id="icon-advert">
    <path d="M19 3H5a2 2 0 00-2 2v14a2 2 0 002 2h14a2 2 0 002-2V5a2 2 0 00-2-2z" stroke="#fff" stroke-width="2" stroke-linecap="round" stroke-linejoin="round"></path>
    <path d="M8.5 10a1.5 1.5 0 100-3 1.5 1.5 0 000 3z" stroke="#CAA203" stroke-width="2" stroke-linecap="round" stroke-linejoin="round"></path>
    <path d="M21 15l-5-5L5 21" stroke="#fff" stroke-width="2" stroke-linecap="round" stroke-linejoin="round"></path>
  </symbol>
  <symbol fill="none" xmlns="http://www.w3.org/2000/svg" viewBox="0 0 16 16" id="icon-bullet">
    <path d="M4 8h7.363" stroke="#24843B" stroke-width="2" stroke-linecap="round" stroke-linejoin="round"></path>
  </symbol>
  <symbol fill="none" xmlns="http://www.w3.org/2000/svg" viewBox="0 0 16 16" id="icon-category">
    <path d="M5.333 4H14M5.333 8H14m-8.667 4H14M2 4h.007M2 8h.007M2 12h.007" stroke="#CAA203" stroke-linecap="round" stroke-linejoin="round"></path>
  </symbol>
  <symbol fill="none" xmlns="http://www.w3.org/2000/svg" viewBox="0 0 16 16" id="icon-clock">
    <path d="M8 14.667A6.667 6.667 0 108 1.333a6.667 6.667 0 000 13.334z" stroke="#CAA203" stroke-linecap="round" stroke-linejoin="round"></path>
    <path d="M8 4v4l2.667 1.333" stroke="#CAA203" stroke-linecap="round" stroke-linejoin="round"></path>
  </symbol>
  <symbol fill="none" xmlns="http://www.w3.org/2000/svg" viewBox="0 0 16 16" id="icon-location">
    <path d="M14 6.667c0 4.666-6 8.666-6 8.666s-6-4-6-8.666a6 6 0 1112 0z" stroke="#CAA203" stroke-linecap="round" stroke-linejoin="round"></path>
    <path d="M8 8.667a2 2 0 100-4 2 2 0 000 4z" stroke="#CAA203" stroke-linecap="round" stroke-linejoin="round"></path>
  </symbol>
  <symbol fill="none" xmlns="http://www.w3.org/2000/svg" viewBox="0 0 24 24" id="icon-menu">
    <path d="M3 12h18M3 4h18M3 20h18" stroke="#FCCB04" stroke-width="2" stroke-linecap="round" stroke-linejoin="round"></path>
  </symbol>
  <symbol fill="none" xmlns="http://www.w3.org/2000/svg" viewBox="0 0 24 24" id="icon-message">
    <path d="M21 15a2 2 0 01-2 2H7l-4 4V5a2 2 0 012-2h14a2 2 0 012 2v10z" stroke="#24843B" stroke-width="2" stroke-linecap="round" stroke-linejoin="round"></path>
  </symbol>
  <symbol fill="none" xmlns="http://www.w3.org/2000/svg" viewBox="0 0 24 24" id="icon-notification">
    <path d="M18 8A6 6 0 106 8c0 7-3 9-3 9h18s-3-2-3-9z" stroke="#fff" stroke-width="2" stroke-linecap="round" stroke-linejoin="round"></path>
    <path d="M13.73 21a1.999 1.999 0 01-3.46 0" stroke="#CAA203" stroke-width="2" stroke-linecap="round" stroke-linejoin="round"></path>
  </symbol>
  <symbol fill="none" xmlns="http://www.w3.org/2000/svg" viewBox="0 0 1390 251" id="lagos-skyline">
    <path d="M1388.63 250.578v-23.98c-9.17-1.63-29.93-5.03-56.33-7.828-10.24-39.991-26.43-106.051-27.41-127.092-1.41-30.887 7.5-90.678 7.5-90.678l-10.33 12.433s-1.01 10.237-1.77 24.866h-12.82c-.75-14.665-1.76-24.866-1.76-24.866L1275.37 1s8.92 59.791 7.5 90.678c-.94 20.332-16.07 82.603-26.34 122.877-16.73.035-33.55.885-49.62 2.798v-7.049l-34.37-3.825v-80.69l-41.71-3.684-20.1 3.684v89.262h-18.34v-15.798h-26.24V107.76H941.455v78.954H910.36V76.554h-8.034v21.323h-26.117V76.554h-8.034V233.15l-12.854.921-9.294-27.7V80.804H783.49v169.774h-15.689v-32.942h-5.23v-35.811h-8.884v-7.544h-31.064v-31.384h-15.122V71.984h-28.039v59.579h-34.498v83.594h-8.033l-20.73 15.798V61.641l-16.477-2.019-32.387 2.02v126.63H555.68v38.29h-24.416v-44.347h-14.65V55.585h-49.525v183.587H454.77V172.51h-9.073v-7.262h-33.615v7.262h-11.216v54.548h-25.74l.757 23.414h-6.742l-10.365-23.059h-27.788l7.593 21.961-1.985 1.062h-2.363l-7.939-23.059h-29.803l7.592 21.961-1.984 1.063h-2.363l-7.939-23.059H253.14l6.144 22.173-2.048.886h-2.3l-6.395-23.059h-38.909l3.875 22.492-2.11.567h-2.206l-3.969-23.059h-39.287v23.059h-4.316v-23.059h-45.556l-3.969 23.059h-2.206l-2.11-.567 3.875-22.492H72.744l-6.049 23.059h-2.268l-2.048-.85 5.829-22.209H38.247l-6.05 23.059H29.93l-2.047-.85 5.828-22.209H6.9L0 250.401" stroke="#fff" stroke-opacity=".05" stroke-width="2" stroke-miterlimit="10" stroke-linecap="round" stroke-linejoin="round"></path>
  </symbol>
  <symbol fill="none" xmlns="http://www.w3.org/2000/svg" viewBox="0 0 114 25" id="logo-white">
    <path d="M2.976 19h3.015v-7.031h7.215v-2.71H5.99v-5.31h8.594v-2.71H2.976V19zM24.821 6.805V8.27h-.048C23.845 7.171 22.588 6.622 21 6.622a5.73 5.73 0 00-2.332.476 5.538 5.538 0 00-1.867 1.306 6.004 6.004 0 00-1.233 2.014 6.992 6.992 0 00-.452 2.54c0 .744.085 1.44.28 2.1.196.658.465 1.232.819 1.733.354.5.769.927 1.257 1.293a5.176 5.176 0 001.636.83c.61.196 1.245.281 1.916.281 1.66 0 2.954-.61 3.882-1.83h.037V19h2.673V6.805H24.82zm-3.356 9.851c-1.038 0-1.88-.341-2.527-1.025-.66-.684-.977-1.575-.977-2.661 0-.562.086-1.087.269-1.575.183-.488.44-.891.757-1.208a3.516 3.516 0 011.11-.757 3.704 3.704 0 011.38-.269c.989 0 1.806.366 2.466 1.099.659.732.988 1.636.988 2.71 0 1.086-.341 1.977-1.013 2.66-.671.684-1.49 1.026-2.453 1.026zM37.023 6.622c-.744 0-1.44.183-2.1.525-.659.342-1.22.842-1.696 1.49h-.037V6.804h-2.795V19h2.795v-5.786c0-.66.122-1.258.379-1.782.256-.525.634-.94 1.147-1.258.513-.305 1.11-.464 1.807-.464.244 0 .525.013.842.037V6.634c-.073 0-.183-.012-.342-.012zm16.62 0a5.88 5.88 0 00-2.477.525 4.932 4.932 0 00-1.892 1.501h-.05c-.732-1.342-1.94-2.026-3.637-2.026-.72 0-1.416.171-2.075.488a5.075 5.075 0 00-1.733 1.38h-.037V6.805h-2.795V19h2.795v-6.08c0-1.159.269-2.074.818-2.746.55-.671 1.257-1.013 2.112-1.013 1.61 0 2.429 1.172 2.429 3.491v6.36h2.795v-6.091c0-1.16.269-2.075.806-2.747.537-.671 1.22-1.013 2.038-1.013 1.587 0 2.393 1.172 2.393 3.491v6.36h2.795v-7.068c0-1.782-.378-3.112-1.11-3.991-.745-.88-1.807-1.33-3.174-1.33zM60.988 19h3.015v-7.117h8.032V19h3.016V1.239h-3.016v7.934h-8.032V1.24h-3.015V19zM79.55 4.986c.33 0 .634-.073.927-.244.293-.17.525-.39.696-.683a1.74 1.74 0 00.257-.928c0-.5-.196-.94-.562-1.306a1.798 1.798 0 00-1.318-.55 1.81 1.81 0 00-1.343.55c-.366.366-.55.793-.55 1.306s.184.952.55 1.318c.366.366.805.537 1.343.537zM78.133 19h2.795V6.805h-2.795V19zM92.03 6.805l-3.125 8.692h-.049L85.67 6.805h-2.99L87.538 19h2.673l4.834-12.195H92.03zm15.73 5.957c0-1.172-.245-2.234-.721-3.161a5.418 5.418 0 00-2.075-2.185c-.903-.525-1.953-.794-3.125-.794a6.06 6.06 0 00-2.356.464 5.672 5.672 0 00-1.892 1.27 5.625 5.625 0 00-1.245 1.99c-.305.78-.452 1.635-.452 2.55 0 1.246.269 2.356.818 3.32a5.483 5.483 0 002.234 2.21c.94.513 2.002.77 3.186.77 1.135 0 2.136-.208 3.003-.623a5.958 5.958 0 002.136-1.685l-1.953-1.672c-.769.964-1.782 1.44-3.039 1.44-.904 0-1.661-.244-2.283-.744-.623-.489-1.026-1.172-1.197-2.039h8.887a6.89 6.89 0 00.074-1.11zm-5.774-3.6c.512 0 .976.109 1.391.317a2.62 2.62 0 011.001.854c.256.366.452.793.574 1.282h-6.104c.196-.781.574-1.38 1.136-1.807.561-.427 1.22-.647 2.002-.647z" fill="#fff"></path>
    <path d="M106.213 2.283l-9.987.897-4.097 10.435 5.89 9.539 9.988-.897 4.096-10.436-5.89-9.538z" stroke="#FCCB04" stroke-width="1.5"></path>
  </symbol>
  <symbol fill="none" xmlns="http://www.w3.org/2000/svg" viewBox="0 0 16 16" id="send-button">
    <path d="M14.667 1.333L7.333 8.667m7.334-7.334L10 14.667l-2.667-6-6-2.667 13.334-4.667z" stroke="#24843B" stroke-linecap="round" stroke-linejoin="round"></path>
  </symbol>
</svg>